<svg width="26" height="27" viewBox="0 0 26 27" fill="none" xmlns="http://www.w3.org/2000/svg">
<path d="M13 26.7402C20.1679 26.7402 26 20.9081 26 13.7402C26 6.57236 20.1679 0.740234 13 0.740234C5.83213 0.740234 0 6.57236 0 13.7402C0 20.9081 5.83213 26.7402 13 26.7402ZM6.26438 3.59211C5.55181 5.51286 5.19756 7.49942 5.252 9.5128C5.29263 10.9737 5.54206 12.437 5.99706 13.8637C6.39764 15.1231 6.95217 16.3282 7.64806 17.4517C7.70484 17.5433 7.79568 17.6086 7.90059 17.6332C8.0055 17.6578 8.11589 17.6397 8.20747 17.583C8.29905 17.5262 8.36433 17.4353 8.38894 17.3304C8.41354 17.2255 8.39547 17.1151 8.33869 17.0235C8.24931 16.8789 8.16075 16.7327 8.07462 16.584C7.5363 15.6442 7.09942 14.6498 6.77137 13.6175C6.34345 12.2819 6.1055 10.8928 6.0645 9.49086C6.00681 7.37186 6.4025 5.27967 7.26131 3.22323C7.30113 3.12573 7.34338 3.02986 7.38563 2.93398C9.0675 2.05648 10.9744 1.55273 13 1.55273C14.9443 1.55273 16.7765 2.02155 18.4088 2.83486C16.3938 3.17855 14.5015 3.8643 12.7871 4.9173C11.528 5.69257 10.3849 6.64204 9.39169 7.73748C8.49971 8.71328 7.73302 9.79659 7.10938 10.9623C7.08139 11.0096 7.06327 11.062 7.05612 11.1164C7.04897 11.1709 7.05294 11.2262 7.06779 11.2791C7.08263 11.332 7.10804 11.3813 7.14248 11.4241C7.17693 11.4669 7.21969 11.5022 7.26818 11.528C7.31668 11.5538 7.36989 11.5695 7.42462 11.5741C7.47935 11.5788 7.53445 11.5723 7.58659 11.555C7.63873 11.5377 7.68682 11.5101 7.72797 11.4737C7.76912 11.4373 7.80247 11.393 7.826 11.3434C8.41791 10.2377 9.14528 9.21009 9.99131 8.2843C10.9342 7.24591 12.0184 6.34524 13.2121 5.60873C15.0323 4.49485 17.0695 3.78239 19.1872 3.51898C19.3058 3.50273 19.4253 3.48973 19.5447 3.47592C22.7273 5.51286 24.8974 8.98142 25.1485 12.9708C23.8436 11.3986 22.3039 10.1027 20.5351 9.14473C19.2335 8.44237 17.8393 7.92705 16.3938 7.61398C15.1027 7.32784 13.7806 7.20554 12.4589 7.24998C12.3555 7.2582 12.2591 7.30557 12.1895 7.38242C12.1198 7.45927 12.0822 7.5598 12.0841 7.6635C12.0861 7.7672 12.1276 7.86623 12.2001 7.94038C12.2726 8.01453 12.3707 8.0582 12.4743 8.06248H12.4897C13.7433 8.02041 14.9971 8.13642 16.2216 8.4078C17.6085 8.71086 18.9304 9.19998 20.1484 9.85892C22.0131 10.8697 23.6267 12.2582 24.9893 14.0441C25.0478 14.1197 25.1038 14.1969 25.1607 14.2732C25.0777 16.19 24.5431 18.06 23.6003 19.7309C22.6576 21.4018 21.3334 22.8263 19.7356 23.8884C20.4482 21.9676 20.8024 19.981 20.748 17.9677C20.705 16.4896 20.4542 15.0249 20.0029 13.6167C19.6024 12.3573 19.0478 11.1522 18.3519 10.0287C18.2932 9.94167 18.2029 9.88077 18.1002 9.8588C17.9975 9.83683 17.8902 9.8555 17.801 9.9109C17.7117 9.9663 17.6474 10.0541 17.6215 10.1559C17.5956 10.2577 17.6102 10.3656 17.6621 10.4569C17.7515 10.6015 17.8401 10.7478 17.9262 10.8965C18.4645 11.8363 18.9014 12.8307 19.2294 13.8629C19.6574 15.1985 19.8953 16.5877 19.9363 17.9896C19.994 20.1078 19.5983 22.2008 18.7395 24.2572C18.6989 24.3539 18.6574 24.4506 18.6152 24.5465C16.8825 25.4537 14.9558 25.9277 13 25.9277C11.0557 25.9277 9.2235 25.4589 7.59119 24.6456C9.60538 24.3019 11.4985 23.6162 13.2129 22.5632C14.4717 21.7875 15.6148 20.8381 16.6083 19.743C17.501 18.7675 18.2677 17.6838 18.8906 16.5174C18.9168 16.4702 18.9334 16.4182 18.9393 16.3645C18.9452 16.3109 18.9403 16.2566 18.925 16.2048C18.9097 16.153 18.8842 16.1048 18.85 16.063C18.8159 16.0212 18.7737 15.9867 18.726 15.9613C18.6784 15.936 18.6261 15.9204 18.5723 15.9155C18.5186 15.9106 18.4644 15.9165 18.4129 15.9328C18.3614 15.9491 18.3137 15.9755 18.2726 16.0104C18.2314 16.0454 18.1976 16.0882 18.1732 16.1363C17.5814 17.2422 16.8537 18.2699 16.0071 19.1954C15.0649 20.2342 13.9809 21.1349 12.7871 21.8709C10.9668 22.9848 8.92973 23.6973 6.812 23.9607C6.69337 23.9769 6.57394 23.9899 6.4545 24.0037C3.27194 21.9668 1.10175 18.4982 0.850688 14.5089C2.15556 16.081 3.69525 17.377 5.46406 18.3349C6.76569 19.0373 8.15985 19.5526 9.60537 19.8657C10.8966 20.1512 12.2186 20.2738 13.5403 20.2305C13.648 20.2263 13.7496 20.1795 13.8229 20.1004C13.8962 20.0214 13.9351 19.9165 13.9311 19.8088C13.923 19.5854 13.7646 19.3985 13.5094 19.418C12.2559 19.4604 11.0021 19.3444 9.77763 19.0727C8.40715 18.7754 7.08527 18.2869 5.85081 17.6215C3.98613 16.6108 2.3725 15.2222 1.00994 13.4364C0.951438 13.3608 0.895375 13.2836 0.8385 13.2072C0.921924 11.2905 1.45685 9.4206 2.39972 7.74975C3.3426 6.0789 4.66675 4.65435 6.26438 3.59211V3.59211Z" fill="#FAA306"/>
</svg>
